<?xml version="1.0" encoding="UTF-8" standalone="no"?>
<!DOCTYPE svg PUBLIC "-//W3C//DTD SVG 1.1//EN" "http://www.w3.org/Graphics/SVG/1.1/DTD/svg11.dtd">
<svg width="100%" height="100%" viewBox="0 0 921 907" version="1.1" xmlns="http://www.w3.org/2000/svg" xmlns:xlink="http://www.w3.org/1999/xlink" xml:space="preserve" xmlns:serif="http://www.serif.com/" style="fill-rule:evenodd;clip-rule:evenodd;stroke-linejoin:round;stroke-miterlimit:2;">
    <g transform="matrix(1,0,0,1,-9427.66,-51.9289)">
        <g transform="matrix(1,0,0,1,9347.69,0)">
            <g transform="matrix(1,0,0,1,1.08594e-09,83.0432)">
                <path d="M373.954,245.131C381.404,234.129 389.397,223.957 397.843,214.708C398.98,213.462 400.125,212.233 401.279,211.02C399.755,202.725 398.957,194.178 398.957,185.446C398.957,158.326 406.628,132.983 419.915,111.47L389.148,54.419C373.953,26.244 384.492,-8.966 412.667,-24.161C440.842,-39.356 476.052,-28.817 491.247,-0.642C491.247,-0.642 516.587,46.344 516.586,46.344C524.202,45.068 532.024,44.403 540,44.403C550.623,44.403 560.972,45.582 570.926,47.814L597.058,-0.642C612.253,-28.817 647.463,-39.356 675.638,-24.161C703.813,-8.966 714.352,26.244 699.157,54.419C699.157,54.419 664.374,118.916 664.374,118.915C675.008,138.74 681.043,161.394 681.043,185.446C681.043,194.178 680.245,202.725 678.721,211.019C679.875,212.233 681.02,213.462 682.157,214.708C690.603,223.957 698.596,234.129 706.046,245.131L800.861,224.789L810.314,98.088C812.696,66.166 840.546,42.182 872.469,44.564C904.391,46.946 928.374,74.796 925.993,106.718L913.31,276.708C911.396,302.371 892.8,323.704 867.638,329.103C867.638,329.103 753.571,353.575 753.571,353.575C754.542,357.395 755.461,361.253 756.326,365.146L855.728,365.586C878.797,365.688 899.612,379.452 908.739,400.639L995.294,601.568C1007.96,630.967 994.372,665.118 964.973,677.782C948.525,684.867 930.591,683.736 915.763,676.217L925.993,813.326C928.374,845.249 904.391,873.099 872.469,875.481C840.546,877.862 812.696,853.879 810.314,821.957L800.861,695.255L701.895,674.023C695.651,682.757 689.055,690.926 682.157,698.481C642.529,741.885 592.859,765.886 540,765.886C487.141,765.886 437.471,741.885 397.843,698.481C390.945,690.926 384.349,682.757 378.105,674.023L279.139,695.255L269.686,821.957C267.304,853.879 239.454,877.862 207.531,875.481C175.609,873.099 151.626,845.249 154.007,813.326L164.237,676.217C149.409,683.736 131.475,684.867 115.027,677.782C85.628,665.118 72.041,630.967 84.706,601.568L171.261,400.639C180.388,379.452 201.203,365.688 224.272,365.586C224.272,365.586 323.674,365.146 323.674,365.146C324.539,361.253 325.458,357.395 326.429,353.575L212.362,329.103C187.2,323.704 168.604,302.371 166.69,276.708L154.007,106.718C151.626,74.796 175.609,46.946 207.531,44.564C239.454,42.182 267.304,66.166 269.686,98.088L279.139,224.789L373.954,245.131ZM215.917,590.18C235.377,586.004 328.138,566.103 328.138,566.103C320.89,539.486 316.162,510.97 314.471,481.188L262.769,481.416L215.917,590.18ZM864.083,590.18L817.231,481.416L765.529,481.188C763.837,510.97 759.11,539.486 751.862,566.103L864.083,590.18Z"/>
            </g>
        </g>
        <g transform="matrix(1,0,0,1,9347.69,0)">
            <g transform="matrix(1,0,0,1,0,83.0432)">
                <path d="M242.803,671.53C243.272,666.62 245.961,663.607 250.835,662.463L264.434,659.545C269.83,658.388 275.152,661.829 276.309,667.225C277.467,672.622 274.026,677.943 268.629,679.1L262.191,680.482L261.646,687.778C261.236,693.282 256.434,697.417 250.93,697.006C245.426,696.596 241.291,691.794 241.702,686.29L242.803,671.53ZM331.826,463.111L322.338,463.153C316.819,463.177 312.319,458.716 312.294,453.197C312.27,447.678 316.731,443.177 322.25,443.153L341.746,443.067C344.421,443.055 346.989,444.115 348.876,446.01C350.764,447.906 351.813,450.478 351.79,453.153C351.78,454.298 351.775,455.445 351.775,456.594C351.775,459.901 351.816,463.193 351.898,466.47C352.035,471.988 347.666,476.578 342.149,476.715C336.631,476.852 332.041,472.484 331.904,466.966C331.872,465.683 331.846,464.398 331.826,463.111ZM748.174,463.111C748.154,464.398 748.128,465.683 748.096,466.966C747.959,472.484 743.369,476.852 737.851,476.715C732.334,476.578 727.965,471.988 728.102,466.47C728.184,463.193 728.225,459.901 728.225,456.594C728.225,455.445 728.22,454.298 728.21,453.153C728.187,450.478 729.236,447.906 731.124,446.01C733.011,444.115 735.579,443.055 738.254,443.067L757.75,443.153C763.269,443.177 767.73,447.678 767.706,453.197C767.681,458.716 763.181,463.177 757.662,463.153L748.174,463.111ZM263.761,443.412C269.28,443.387 273.78,447.848 273.805,453.367C273.829,458.886 269.368,463.387 263.849,463.412L250.902,463.469L248.24,469.647C246.057,474.715 240.169,477.058 235.1,474.874C230.031,472.691 227.689,466.803 229.872,461.734L235.124,449.542C236.698,445.889 240.287,443.516 244.264,443.498L263.761,443.412ZM214.116,498.311C216.299,493.242 222.187,490.9 227.256,493.083C232.325,495.267 234.667,501.155 232.484,506.224L221.98,530.608C219.796,535.677 213.908,538.02 208.839,535.836C203.77,533.652 201.428,527.764 203.611,522.696L214.116,498.311ZM187.855,559.273C190.038,554.204 195.926,551.861 200.995,554.045C206.064,556.228 208.407,562.116 206.223,567.185L195.719,591.57C193.535,596.639 187.647,598.981 182.578,596.798C177.509,594.614 175.167,588.726 177.35,583.657L187.855,559.273ZM161.594,620.234C163.778,615.165 169.666,612.823 174.734,615.007C179.803,617.19 182.146,623.078 179.962,628.147L174.71,640.339C171.234,648.408 165.411,654.749 158.383,658.912C153.634,661.725 147.495,660.153 144.683,655.404C141.87,650.655 143.442,644.516 148.191,641.704C151.7,639.625 154.606,636.456 156.342,632.427L161.594,620.234ZM118.463,628.898C119.682,634.281 116.3,639.64 110.917,640.859C105.534,642.077 100.175,638.696 98.957,633.313C97.154,625.346 97.761,616.758 101.237,608.689L105.565,598.643C107.748,593.574 113.636,591.231 118.705,593.415C123.774,595.598 126.117,601.486 123.933,606.555L119.605,616.602C117.87,620.631 117.563,624.92 118.463,628.898ZM136.916,576.416C134.733,581.485 128.845,583.827 123.776,581.644C118.707,579.46 116.365,573.572 118.548,568.503L127.204,548.41C129.387,543.342 135.275,540.999 140.344,543.183C145.413,545.366 147.755,551.254 145.572,556.323L136.916,576.416ZM158.555,526.184C156.372,531.253 150.484,533.595 145.415,531.411C140.346,529.228 138.003,523.34 140.187,518.271L148.843,498.178C151.026,493.109 156.914,490.767 161.983,492.95C167.052,495.134 169.394,501.022 167.211,506.091L158.555,526.184ZM180.194,475.951C178.011,481.02 172.123,483.363 167.054,481.179C161.985,478.996 159.642,473.108 161.826,468.039L170.481,447.946C172.665,442.877 178.553,440.534 183.622,442.718C188.691,444.901 191.033,450.789 188.85,455.858L180.194,475.951ZM201.833,425.719C199.649,430.788 193.761,433.13 188.693,430.947C183.624,428.763 181.281,422.875 183.465,417.806L187.792,407.76C194.087,393.148 208.442,383.656 224.352,383.585L236.595,383.531C242.114,383.507 246.614,387.968 246.639,393.487C246.663,399.006 242.202,403.507 236.683,403.531L224.44,403.585C216.486,403.62 209.308,408.367 206.161,415.673L201.833,425.719ZM273.412,403.369C267.893,403.393 263.392,398.932 263.368,393.413C263.343,387.894 267.804,383.393 273.323,383.369L297.809,383.26C303.328,383.236 307.829,387.697 307.853,393.216C307.877,398.735 303.416,403.236 297.897,403.26L273.412,403.369ZM334.626,403.098C329.107,403.122 324.606,398.661 324.582,393.142C324.557,387.623 329.018,383.122 334.537,383.098L338.397,383.081C338.658,381.662 338.926,380.247 339.202,378.837C340.26,373.42 345.517,369.881 350.933,370.939C356.35,371.997 359.889,377.254 358.831,382.671C358.059,386.624 357.347,390.614 356.696,394.639C355.916,399.467 351.759,403.022 346.869,403.044L334.626,403.098ZM367.607,347.329C366.002,352.61 360.411,355.594 355.131,353.989C349.85,352.384 346.866,346.794 348.471,341.513C348.625,341.006 348.78,340.5 348.936,339.994L345.419,339.239C340.022,338.082 336.581,332.761 337.739,327.364C338.897,321.968 344.218,318.527 349.614,319.684L363.979,322.766C366.775,323.366 369.181,325.134 370.587,327.624C371.994,330.114 372.268,333.087 371.339,335.792C370.035,339.587 368.791,343.434 367.607,347.329ZM306.521,310.439C311.917,311.597 315.358,316.918 314.2,322.314C313.043,327.711 307.722,331.152 302.325,329.994L273.596,323.83C268.2,322.673 264.759,317.351 265.916,311.955C267.074,306.559 272.395,303.118 277.792,304.275L306.521,310.439ZM234.698,295.03C240.094,296.188 243.536,301.509 242.378,306.905C241.22,312.301 235.899,315.743 230.503,314.585L216.138,311.503C198.785,307.78 185.96,293.068 184.64,275.369L183.794,264.036C183.384,258.532 187.519,253.731 193.023,253.32C198.526,252.909 203.328,257.044 203.739,262.548L204.584,273.881C205.245,282.73 211.657,290.087 220.334,291.948L234.698,295.03ZM201.202,228.55C201.613,234.054 197.478,238.856 191.974,239.267C186.47,239.677 181.668,235.542 181.258,230.038L179.567,207.373C179.156,201.869 183.291,197.068 188.795,196.657C194.299,196.246 199.101,200.381 199.511,205.885L201.202,228.55ZM196.975,171.887C197.385,177.391 193.25,182.193 187.747,182.603C182.243,183.014 177.441,178.879 177.03,173.375L175.339,150.71C174.929,145.206 179.064,140.404 184.568,139.994C190.071,139.583 194.873,143.718 195.284,149.222L196.975,171.887ZM192.747,115.224C193.158,120.728 189.023,125.53 183.519,125.94C178.015,126.351 173.213,122.216 172.803,116.712L171.957,105.379C171.304,96.618 173.531,88.302 177.834,81.359C180.741,76.668 186.91,75.219 191.602,78.127C196.293,81.034 197.741,87.204 194.833,91.895C192.684,95.362 191.575,99.516 191.902,103.891L192.747,115.224ZM227.112,89.487C223.54,85.279 224.057,78.963 228.265,75.392C232.473,71.82 238.788,72.337 242.36,76.545C247.646,82.772 251.082,90.666 251.736,99.427L252.837,114.187C253.247,119.691 249.112,124.493 243.608,124.903C238.105,125.314 233.303,121.179 232.892,115.675L231.791,100.915C231.465,96.54 229.751,92.597 227.112,89.487ZM236.196,159.955C235.785,154.451 239.92,149.649 245.424,149.239C250.928,148.828 255.73,152.963 256.14,158.467L258.343,187.987C258.753,193.491 254.618,198.292 249.114,198.703C243.611,199.114 238.809,194.979 238.398,189.475L236.196,159.955ZM241.702,233.755C241.291,228.251 245.426,223.449 250.93,223.038C256.434,222.628 261.236,226.763 261.646,232.267C261.646,232.267 262.191,239.563 262.191,239.563L268.289,240.871C273.685,242.029 277.127,247.35 275.969,252.747C274.811,258.143 269.49,261.584 264.094,260.426L250.678,257.548C246.339,256.617 243.133,252.939 242.803,248.514L241.702,233.755ZM304.342,269.061C298.946,267.904 295.504,262.582 296.662,257.186C297.82,251.79 303.141,248.349 308.537,249.506L335.369,255.263C340.766,256.421 344.207,261.742 343.049,267.138C341.892,272.535 336.57,275.976 331.174,274.818L304.342,269.061ZM371.422,283.453C366.026,282.295 362.585,276.974 363.743,271.578C364.9,266.181 370.221,262.74 375.618,263.898L380.166,264.874C380.885,265.028 381.594,265.201 382.295,265.391C383.468,263.485 384.658,261.601 385.864,259.742C388.867,255.112 395.065,253.791 399.695,256.795C404.325,259.798 405.646,265.996 402.643,270.626C400.078,274.581 397.591,278.651 395.188,282.833C392.452,287.594 386.387,289.258 381.604,286.559C379.888,285.591 377.998,284.864 375.971,284.429L371.422,283.453ZM428.927,237.088C425.121,241.085 418.786,241.24 414.789,237.434C410.792,233.628 410.637,227.293 414.443,223.296C416.591,221.041 418.769,218.846 420.976,216.713C420.477,214.814 420.023,212.898 419.615,210.965C418.473,205.565 421.93,200.255 427.33,199.113C432.73,197.971 438.04,201.429 439.182,206.828C439.896,210.205 440.775,213.521 441.812,216.767C443,220.489 441.911,224.561 439.025,227.195C435.584,230.334 432.217,233.634 428.927,237.088ZM437.375,176.103C436.881,181.6 432.016,185.661 426.519,185.167C421.022,184.672 416.961,179.808 417.455,174.311C418.202,166.012 419.774,157.949 422.089,150.205C423.669,144.917 429.245,141.907 434.533,143.487C439.821,145.067 442.831,150.644 441.251,155.932C439.315,162.411 438,169.158 437.375,176.103ZM454.38,128.127C451.304,132.709 445.086,133.932 440.503,130.856C435.921,127.78 434.698,121.562 437.774,116.98C438.792,115.464 439.842,113.972 440.924,112.505L436.218,103.778C433.598,98.92 435.415,92.849 440.272,90.23C445.13,87.61 451.201,89.427 453.821,94.285L461.627,108.76C463.56,112.343 463.127,116.739 460.534,119.877C458.35,122.52 456.296,125.273 454.38,128.127ZM430.401,50.858C433.021,55.715 431.204,61.786 426.346,64.406C421.488,67.026 415.417,65.209 412.798,60.351L404.991,45.875C400.821,38.143 399.462,29.641 400.559,21.547C401.3,16.078 406.342,12.239 411.812,12.981C417.281,13.722 421.119,18.764 420.378,24.233C419.83,28.275 420.512,32.52 422.594,36.382L430.401,50.858ZM448.867,8.869C443.89,6.484 441.786,0.507 444.171,-4.471C446.556,-9.448 452.533,-11.552 457.511,-9.167C464.877,-5.637 471.234,0.169 475.404,7.902L482.545,21.142C485.164,26 483.347,32.071 478.49,34.691C473.632,37.31 467.561,35.493 464.941,30.636L457.801,17.395C455.718,13.534 452.546,10.632 448.867,8.869ZM486.363,70.357C483.743,65.499 485.56,59.428 490.418,56.809C495.275,54.189 501.346,56.006 503.966,60.864C503.966,60.864 507.187,66.836 507.187,66.836C510.296,65.977 513.454,65.237 516.655,64.62C522.075,63.577 527.322,67.131 528.365,72.55C529.408,77.97 525.855,83.217 520.435,84.26C515.362,85.236 510.422,86.585 505.643,88.277C500.996,89.923 495.843,87.936 493.503,83.597L486.363,70.357ZM566.107,85.743C560.767,84.347 557.566,78.878 558.962,73.539C560.358,68.199 565.827,64.997 571.166,66.394C574.132,67.169 577.055,68.053 579.93,69.04L583.181,63.011C585.8,58.153 591.871,56.336 596.729,58.956C601.587,61.576 603.404,67.647 600.784,72.504L593.354,86.282C590.895,90.841 585.363,92.768 580.604,90.722C575.939,88.718 571.096,87.048 566.107,85.743ZM623.074,31.173C620.454,36.03 614.384,37.847 609.526,35.227C604.668,32.608 602.851,26.537 605.471,21.679L612.901,7.902C617.071,0.169 623.428,-5.637 630.794,-9.167C635.771,-11.552 641.749,-9.448 644.134,-4.471C646.519,0.507 644.415,6.484 639.438,8.869C635.759,10.632 632.587,13.534 630.504,17.395L623.074,31.173ZM667.927,24.233C667.186,18.764 671.024,13.722 676.493,12.981C681.962,12.239 687.005,16.078 687.746,21.547C688.843,29.641 687.484,38.143 683.314,45.875L674.823,61.621C672.203,66.479 666.132,68.296 661.274,65.676C656.416,63.056 654.599,56.985 657.219,52.127L665.711,36.382C667.793,32.52 668.475,28.275 667.927,24.233ZM631.745,99.364C634.365,94.506 640.435,92.689 645.293,95.309C650.151,97.929 651.968,103.999 649.348,108.857C649.348,108.857 643.73,119.275 643.73,119.275C644.645,120.706 645.531,122.158 646.388,123.629C649.167,128.397 647.551,134.525 642.782,137.303C638.013,140.081 631.885,138.465 629.107,133.696C627.499,130.936 625.766,128.257 623.917,125.667C621.7,122.563 621.442,118.467 623.253,115.109L631.745,99.364ZM639.912,160.151C638.56,154.8 641.806,149.358 647.157,148.006C652.508,146.654 657.95,149.9 659.302,155.251C661.141,162.528 662.332,170.061 662.808,177.787C663.147,183.296 658.95,188.044 653.442,188.383C647.933,188.722 643.185,184.525 642.846,179.017C642.447,172.549 641.451,166.243 639.912,160.151ZM640.664,207.542C641.845,202.15 647.18,198.731 652.571,199.911C657.963,201.091 661.382,206.426 660.202,211.818C659.842,213.462 659.449,215.094 659.024,216.712C661.231,218.846 663.409,221.041 665.557,223.296C669.363,227.293 669.208,233.628 665.211,237.434C661.214,241.24 654.879,241.085 651.073,237.088C647.783,233.634 644.416,230.334 640.975,227.195C638.089,224.561 637,220.489 638.188,216.767C639.152,213.749 639.979,210.672 640.664,207.542ZM677.357,270.626C674.354,265.996 675.675,259.798 680.305,256.795C684.935,253.791 691.133,255.112 694.136,259.742C695.342,261.601 696.532,263.485 697.705,265.391C698.406,265.2 699.116,265.028 699.834,264.874L712.363,262.186C717.759,261.028 723.081,264.469 724.238,269.865C725.396,275.262 721.955,280.583 716.559,281.741L704.029,284.429C702.002,284.864 700.112,285.591 698.396,286.559C693.613,289.258 687.548,287.594 684.812,282.833C682.409,278.651 679.922,274.581 677.357,270.626ZM754.146,273.676C748.75,274.834 743.429,271.393 742.271,265.997C741.114,260.6 744.555,255.279 749.951,254.121L775.01,248.745C780.406,247.588 785.727,251.029 786.885,256.425C788.043,261.821 784.602,267.143 779.205,268.3L754.146,273.676ZM816.793,260.236C811.397,261.394 806.076,257.953 804.918,252.556C803.76,247.16 807.201,241.839 812.598,240.681L817.809,239.563L818.354,232.267C818.764,226.763 823.566,222.628 829.07,223.038C834.574,223.449 838.709,228.251 838.298,233.755L837.197,248.514C836.867,252.939 833.661,256.617 829.322,257.548L816.793,260.236ZM841.602,189.475C841.191,194.979 836.389,199.114 830.886,198.703C825.382,198.292 821.247,193.491 821.657,187.987L823.86,158.467C824.27,152.963 829.072,148.828 834.576,149.239C840.08,149.649 844.215,154.451 843.804,159.955L841.602,189.475ZM847.108,115.675C846.697,121.179 841.895,125.314 836.392,124.903C830.888,124.493 826.753,119.691 827.163,114.187L828.264,99.427C828.918,90.666 832.354,82.772 837.64,76.545C841.212,72.337 847.527,71.82 851.735,75.392C855.943,78.963 856.46,85.279 852.888,89.487C850.249,92.597 848.535,96.54 848.209,100.915L847.108,115.675ZM885.167,91.895C882.259,87.204 883.707,81.034 888.398,78.127C893.09,75.219 899.259,76.668 902.166,81.359C906.469,88.302 908.696,96.618 908.043,105.379L907.197,116.712C906.787,122.216 901.985,126.351 896.481,125.94C890.977,125.53 886.842,120.728 887.253,115.224L888.098,103.891C888.425,99.516 887.316,95.362 885.167,91.895ZM884.716,149.222C885.127,143.718 889.929,139.583 895.432,139.994C900.936,140.404 905.071,145.206 904.661,150.71L902.97,173.375C902.559,178.879 897.757,183.014 892.253,182.603C886.75,182.193 882.615,177.391 883.025,171.887L884.716,149.222ZM880.489,205.885C880.899,200.381 885.701,196.246 891.205,196.657C896.709,197.068 900.844,201.869 900.433,207.373L898.742,230.039C898.332,235.542 893.53,239.677 888.026,239.267C882.522,238.856 878.387,234.054 878.798,228.55L880.489,205.885ZM876.261,262.548C876.672,257.044 881.474,252.909 886.977,253.32C892.481,253.731 896.616,258.532 896.206,264.036L895.36,275.369C894.04,293.068 881.215,307.78 863.862,311.503L849.497,314.585C844.101,315.743 838.78,312.301 837.622,306.905C836.464,301.509 839.906,296.188 845.302,295.03L859.666,291.948C868.343,290.087 874.755,282.73 875.416,273.881L876.261,262.548ZM802.208,304.275C807.605,303.118 812.926,306.559 814.084,311.955C815.241,317.351 811.8,322.673 806.404,323.83L777.675,329.994C772.278,331.152 766.957,327.711 765.799,322.314C764.642,316.918 768.083,311.597 773.479,310.439L802.208,304.275ZM730.386,319.684C735.782,318.527 741.103,321.968 742.261,327.364C743.419,332.761 739.978,338.082 734.581,339.239C734.581,339.239 731.064,339.994 731.064,339.994C731.22,340.5 731.375,341.006 731.529,341.513C733.134,346.794 730.15,352.384 724.869,353.989C719.589,355.594 713.998,352.61 712.393,347.329C711.209,343.434 709.965,339.587 708.661,335.792C707.732,333.087 708.006,330.114 709.413,327.624C710.819,325.134 713.225,323.366 716.021,322.766L730.386,319.684ZM721.169,382.671C720.111,377.254 723.65,371.997 729.067,370.939C734.483,369.881 739.74,373.42 740.798,378.837C741.074,380.247 741.342,381.662 741.603,383.081L745.463,383.098C750.982,383.122 755.443,387.623 755.418,393.142C755.394,398.661 750.893,403.122 745.374,403.098L733.131,403.044C728.241,403.022 724.084,399.467 723.304,394.639C722.653,390.614 721.941,386.624 721.169,382.671ZM782.103,403.26C776.584,403.236 772.123,398.735 772.147,393.216C772.171,387.697 776.672,383.236 782.191,383.26L806.677,383.369C812.196,383.393 816.657,387.894 816.632,393.413C816.608,398.932 812.107,403.393 806.588,403.369L782.103,403.26ZM843.317,403.531C837.798,403.507 833.337,399.006 833.361,393.487C833.386,387.968 837.886,383.507 843.405,383.531L855.648,383.585C871.558,383.656 885.913,393.148 892.208,407.76L896.535,417.806C898.719,422.875 896.376,428.763 891.307,430.947C886.239,433.13 880.351,430.788 878.167,425.719L873.839,415.673C870.692,408.367 863.514,403.62 855.56,403.585L843.317,403.531ZM891.15,455.858C888.967,450.79 891.309,444.902 896.378,442.718C901.447,440.534 907.335,442.877 909.519,447.946L918.174,468.039C920.358,473.107 918.015,478.995 912.946,481.179C907.877,483.363 901.989,481.02 899.806,475.951L891.15,455.858ZM912.789,506.09C910.606,501.022 912.948,495.134 918.017,492.95C923.086,490.767 928.974,493.109 931.157,498.178L939.813,518.271C941.996,523.34 939.654,529.228 934.585,531.411C929.516,533.595 923.628,531.252 921.445,526.183L912.789,506.09ZM934.428,556.323C932.244,551.254 934.587,545.366 939.656,543.183C944.725,540.999 950.613,543.342 952.796,548.41L961.452,568.503C963.635,573.572 961.293,579.46 956.224,581.644C951.155,583.827 945.267,581.485 943.084,576.416L934.428,556.323ZM956.067,606.555C953.883,601.486 956.226,595.598 961.295,593.415C966.364,591.231 972.252,593.574 974.435,598.643L978.763,608.689C982.239,616.758 982.846,625.346 981.043,633.313C979.825,638.696 974.466,642.077 969.083,640.859C963.7,639.64 960.318,634.281 961.537,628.898C962.437,624.92 962.13,620.631 960.395,616.602L956.067,606.555ZM931.809,641.704C936.558,644.516 938.13,650.655 935.317,655.404C932.505,660.153 926.366,661.725 921.617,658.912C914.589,654.749 908.766,648.408 905.29,640.339L900.038,628.147C897.854,623.078 900.197,617.19 905.266,615.007C910.334,612.823 916.222,615.165 918.406,620.234L923.658,632.427C925.394,636.456 928.3,639.625 931.809,641.704ZM902.65,583.657C904.833,588.726 902.491,594.614 897.422,596.798C892.353,598.981 886.465,596.639 884.281,591.57L873.777,567.185C871.593,562.117 873.936,556.228 879.005,554.045C884.074,551.861 889.962,554.204 892.145,559.273L902.65,583.657ZM876.389,522.696C878.572,527.764 876.23,533.652 871.161,535.836C866.092,538.02 860.204,535.677 858.02,530.608L847.516,506.224C845.333,501.155 847.675,495.267 852.744,493.083C857.813,490.9 863.701,493.242 865.884,498.311L876.389,522.696ZM850.128,461.734C852.311,466.803 849.969,472.691 844.9,474.874C839.831,477.058 833.943,474.715 831.76,469.647C831.76,469.647 829.098,463.469 829.099,463.469L816.151,463.412C810.632,463.387 806.171,458.886 806.195,453.367C806.22,447.848 810.72,443.387 816.239,443.412L835.736,443.498C839.713,443.516 843.302,445.889 844.876,449.542L850.128,461.734ZM725.081,506.271C725.782,500.796 730.796,496.921 736.27,497.622C741.745,498.323 745.62,503.337 744.919,508.812C743.717,518.197 742.198,527.419 740.382,536.452C739.294,541.863 734.018,545.372 728.607,544.284C723.196,543.196 719.687,537.92 720.774,532.509C722.499,523.934 723.94,515.18 725.081,506.271ZM710.772,571.044C712.461,565.79 718.098,562.895 723.353,564.584C728.607,566.272 731.502,571.909 729.813,577.164C729.55,577.982 729.285,578.798 729.017,579.612L732.548,580.369C737.944,581.527 741.386,586.848 740.228,592.244C739.07,597.641 733.749,601.082 728.353,599.924L713.762,596.794C710.932,596.187 708.504,594.383 707.105,591.849C705.706,589.315 705.474,586.3 706.469,583.581C707.974,579.465 709.409,575.285 710.772,571.044ZM772.124,609.315C766.728,608.157 763.286,602.836 764.444,597.44C765.602,592.043 770.923,588.602 776.319,589.76L805.5,596.021C810.897,597.178 814.338,602.499 813.18,607.896C812.022,613.292 806.701,616.733 801.305,615.576L772.124,609.315ZM845.076,624.966C839.68,623.809 836.239,618.488 837.396,613.091C838.554,607.695 843.875,604.254 849.271,605.411L863.862,608.542C881.215,612.265 894.04,626.977 895.36,644.676L896.206,656.008C896.616,661.512 892.481,666.314 886.977,666.725C881.474,667.135 876.672,663 876.261,657.496L875.416,646.164C874.755,637.314 868.343,629.958 859.666,628.097L845.076,624.966ZM878.798,691.494C878.387,685.99 882.522,681.189 888.026,680.778C893.53,680.367 898.332,684.502 898.742,690.006L900.433,712.672C900.844,718.175 896.709,722.977 891.205,723.388C885.701,723.798 880.899,719.663 880.489,714.16L878.798,691.494ZM883.025,748.158C882.615,742.654 886.75,737.852 892.253,737.441C897.757,737.031 902.559,741.166 902.97,746.67L904.661,769.335C905.071,774.839 900.936,779.641 895.432,780.051C889.929,780.462 885.127,776.327 884.716,770.823L883.025,748.158ZM887.253,804.821C886.842,799.317 890.977,794.515 896.481,794.104C901.985,793.694 906.787,797.829 907.197,803.333L908.043,814.666C908.696,823.427 906.469,831.743 902.166,838.686C899.259,843.377 893.09,844.825 888.398,841.918C883.707,839.01 882.259,832.841 885.167,828.15C887.316,824.683 888.425,820.529 888.098,816.154L887.253,804.821ZM852.888,830.558C856.46,834.766 855.943,841.082 851.735,844.653C847.527,848.225 841.212,847.708 837.64,843.5C832.354,837.273 828.918,829.379 828.264,820.618L827.163,805.858C826.753,800.354 830.888,795.552 836.392,795.141C841.895,794.731 846.697,798.866 847.108,804.37L848.209,819.13C848.535,823.505 850.249,827.448 852.888,830.558ZM843.804,760.09C844.215,765.594 840.08,770.396 834.576,770.806C829.072,771.217 824.27,767.082 823.86,761.578L821.657,732.058C821.247,726.554 825.382,721.752 830.886,721.342C836.389,720.931 841.191,725.066 841.602,730.57L843.804,760.09ZM838.298,686.29C838.709,691.794 834.574,696.596 829.07,697.006C823.566,697.417 818.764,693.282 818.354,687.778L817.809,680.482L811.371,679.1C805.974,677.943 802.533,672.622 803.691,667.225C804.848,661.829 810.17,658.388 815.566,659.545L829.322,662.497C833.661,663.428 836.867,667.106 837.197,671.53L838.298,686.29ZM774.296,650.691C779.693,651.849 783.134,657.17 781.976,662.567C780.818,667.963 775.497,671.404 770.101,670.246L742.588,664.344C737.191,663.186 733.75,657.865 734.908,652.468C736.066,647.072 741.387,643.631 746.783,644.789L774.296,650.691ZM705.514,635.934C710.91,637.092 714.351,642.413 713.194,647.81C712.036,653.206 706.715,656.647 701.318,655.489L699.834,655.171C697.857,654.747 695.945,654.183 694.107,653.491C693.805,653.957 693.502,654.421 693.197,654.884C690.165,659.496 683.959,660.778 679.348,657.746C674.736,654.714 673.454,648.508 676.486,643.896C678.363,641.042 680.198,638.127 681.99,635.151C683.438,632.748 685.829,631.063 688.579,630.508C691.329,629.954 694.186,630.58 696.452,632.234C698.646,633.836 701.204,635.01 704.029,635.616L705.514,635.934ZM657.928,668.543C661.537,664.368 667.858,663.908 672.033,667.517C676.209,671.126 676.668,677.447 673.059,681.622C671.675,683.224 670.277,684.798 668.864,686.345C665.194,690.365 661.43,694.205 657.579,697.86C653.577,701.66 647.242,701.495 643.442,697.493C639.642,693.49 639.807,687.155 643.81,683.355C647.319,680.024 650.749,676.523 654.094,672.859C655.385,671.446 656.663,670.007 657.928,668.543ZM620.073,702.472C624.652,699.391 630.871,700.608 633.952,705.188C637.032,709.768 635.815,715.986 631.235,719.067C624.868,723.35 618.332,727.182 611.651,730.545C606.721,733.027 600.704,731.039 598.223,726.109C595.741,721.179 597.729,715.162 602.659,712.681C608.6,709.69 614.41,706.281 620.073,702.472ZM574.578,723.382C579.914,721.972 585.391,725.16 586.8,730.496C588.21,735.832 585.022,741.309 579.686,742.719C572.295,744.671 564.782,746.082 557.169,746.932C551.684,747.544 546.734,743.588 546.122,738.103C545.509,732.618 549.466,727.667 554.951,727.055C561.587,726.315 568.136,725.083 574.578,723.382ZM525.049,727.055C530.534,727.667 534.491,732.618 533.878,738.103C533.266,743.588 528.316,747.544 522.831,746.932C515.218,746.082 507.705,744.671 500.314,742.719C494.978,741.309 491.79,735.833 493.2,730.496C494.609,725.16 500.086,721.972 505.422,723.382C511.864,725.083 518.413,726.315 525.049,727.055ZM477.341,712.681C482.271,715.162 484.259,721.179 481.777,726.109C479.296,731.039 473.279,733.027 468.349,730.545C461.668,727.182 455.132,723.35 448.764,719.067C444.185,715.986 442.968,709.767 446.048,705.188C449.129,700.608 455.348,699.391 459.927,702.472C465.589,706.281 471.4,709.69 477.341,712.681ZM436.19,683.355C440.193,687.155 440.358,693.49 436.558,697.493C432.758,701.495 426.423,701.66 422.421,697.86C418.57,694.205 414.806,690.365 411.136,686.345C409.724,684.798 408.325,683.224 406.941,681.622C403.332,677.447 403.791,671.127 407.967,667.517C412.142,663.908 418.463,664.368 422.072,668.543C423.337,670.007 424.615,671.446 425.906,672.859C429.251,676.523 432.681,680.024 436.19,683.355ZM403.514,643.896C406.546,648.508 405.264,654.714 400.652,657.746C396.041,660.778 389.835,659.496 386.803,654.884C386.498,654.421 386.195,653.957 385.893,653.491C384.055,654.183 382.143,654.747 380.166,655.171L378.682,655.489C373.285,656.647 367.964,653.206 366.806,647.81C365.649,642.413 369.09,637.092 374.486,635.934L375.971,635.616C378.796,635.01 381.354,633.836 383.548,632.234C385.814,630.58 388.671,629.954 391.421,630.508C394.171,631.063 396.562,632.748 398.01,635.151C399.802,638.127 401.637,641.042 403.514,643.896ZM333.217,644.789C338.613,643.631 343.934,647.072 345.092,652.468C346.25,657.865 342.808,663.186 337.412,664.344L309.899,670.246C304.503,671.404 299.181,667.963 298.024,662.567C296.866,657.17 300.307,651.849 305.703,650.691L333.217,644.789ZM238.398,730.57C238.809,725.066 243.611,720.931 249.114,721.342C254.618,721.752 258.753,726.554 258.343,732.058L256.14,761.578C255.73,767.082 250.928,771.217 245.424,770.806C239.92,770.396 235.785,765.594 236.196,760.09L238.398,730.57ZM232.892,804.37C233.303,798.866 238.105,794.731 243.608,795.141C249.112,795.552 253.247,800.354 252.837,805.858L251.736,820.618C251.082,829.379 247.646,837.273 242.36,843.5C238.788,847.708 232.473,848.225 228.265,844.653C224.057,841.082 223.54,834.766 227.112,830.558C229.751,827.448 231.465,823.505 231.791,819.13L232.892,804.37ZM194.833,828.15C197.741,832.841 196.293,839.01 191.602,841.918C186.91,844.825 180.741,843.377 177.834,838.686C173.531,831.743 171.304,823.427 171.957,814.666L172.803,803.333C173.213,797.829 178.015,793.694 183.519,794.104C189.023,794.515 193.158,799.317 192.747,804.821L191.902,816.154C191.575,820.529 192.684,824.683 194.833,828.15ZM195.284,770.823C194.873,776.327 190.071,780.462 184.568,780.051C179.064,779.641 174.929,774.839 175.339,769.335L177.03,746.67C177.441,741.166 182.243,737.031 187.747,737.441C193.25,737.852 197.385,742.654 196.975,748.158L195.284,770.823ZM199.511,714.16C199.101,719.663 194.299,723.798 188.795,723.388C183.291,722.977 179.156,718.175 179.567,712.672L181.258,690.006C181.668,684.502 186.47,680.367 191.974,680.778C197.478,681.189 201.613,685.99 201.202,691.494L199.511,714.16ZM203.739,657.496C203.328,663 198.526,667.135 193.023,666.725C187.519,666.314 183.384,661.512 183.794,656.008L184.64,644.676C185.96,626.977 198.785,612.265 216.138,608.542L230.729,605.411C236.125,604.254 241.446,607.695 242.604,613.091C243.761,618.488 240.32,623.809 234.924,624.966L220.334,628.097C211.657,629.958 205.245,637.314 204.584,646.164L203.739,657.496ZM278.695,615.576C273.299,616.733 267.978,613.292 266.82,607.896C265.662,602.499 269.103,597.178 274.5,596.021L303.681,589.76C309.077,588.602 314.398,592.043 315.556,597.44C316.714,602.836 313.272,608.157 307.876,609.315L278.695,615.576ZM351.647,599.924C346.251,601.082 340.93,597.641 339.772,592.244C338.614,586.848 342.056,581.527 347.452,580.369C347.452,580.369 350.983,579.612 350.983,579.612C350.715,578.798 350.45,577.982 350.187,577.164C348.498,571.909 351.393,566.272 356.647,564.584C361.902,562.895 367.539,565.79 369.228,571.044C370.591,575.285 372.026,579.465 373.531,583.581C374.526,586.3 374.294,589.315 372.895,591.849C371.496,594.383 369.068,596.187 366.238,596.794L351.647,599.924ZM359.226,532.509C360.314,537.92 356.804,543.196 351.393,544.284C345.982,545.372 340.706,541.863 339.618,536.452C337.802,527.419 336.283,518.197 335.081,508.812C334.38,503.337 338.255,498.324 343.73,497.622C349.204,496.921 354.218,500.796 354.919,506.271C356.06,515.181 357.501,523.934 359.226,532.509ZM449.074,359.82C449.074,347.902 452.901,335.827 460.553,323.595C468.206,311.363 479.371,301.233 494.049,293.204C508.727,285.175 525.852,281.161 545.422,281.161C563.613,281.161 579.671,284.516 593.596,291.228C607.522,297.94 618.279,307.067 625.869,318.608C633.459,330.15 637.254,342.695 637.254,356.244C637.254,366.908 635.09,376.254 630.762,384.283C626.434,392.312 621.29,399.243 615.331,405.077C609.372,410.91 598.677,420.727 583.246,434.527C578.981,438.416 575.562,441.835 572.991,444.783C570.419,447.731 568.506,450.428 567.251,452.875C565.997,455.321 565.024,457.767 564.334,460.214C563.644,462.66 562.609,466.957 561.229,473.104C558.846,486.151 551.381,492.675 538.836,492.675C532.312,492.675 526.824,490.542 522.37,486.276C517.917,482.011 515.69,475.676 515.69,467.27C515.69,456.732 517.321,447.605 520.583,439.89C523.844,432.175 528.172,425.4 533.567,419.567C538.961,413.733 546.238,406.802 555.396,398.773C563.425,391.748 569.227,386.447 572.802,382.872C576.378,379.296 579.389,375.313 581.835,370.922C584.281,366.531 585.504,361.764 585.504,356.621C585.504,346.584 581.772,338.116 574.308,331.216C566.843,324.316 557.215,320.867 545.422,320.867C531.622,320.867 521.461,324.348 514.937,331.31C508.414,338.273 502.894,348.529 498.377,362.078C494.112,376.254 486.02,383.342 474.102,383.342C467.077,383.342 461.149,380.864 456.319,375.909C451.489,370.954 449.074,365.591 449.074,359.82ZM540.906,566.065C533.253,566.065 526.573,563.587 520.865,558.631C515.157,553.676 512.303,546.745 512.303,537.838C512.303,529.934 515.063,523.285 520.583,517.891C526.102,512.496 532.877,509.799 540.906,509.799C548.809,509.799 555.458,512.496 560.853,517.891C566.247,523.285 568.945,529.934 568.945,537.838C568.945,546.619 566.122,553.519 560.477,558.537C554.831,563.556 548.308,566.065 540.906,566.065Z" style="fill:white;"/>
            </g>
        </g>
    </g>
</svg>
